<svg width="133" height="53" viewBox="0 0 133 53" fill="none" xmlns="http://www.w3.org/2000/svg">
<g clip-path="url(#clip0_269_2)">
<path d="M133 0H0V53H133V0Z" fill="white"/>
<path d="M17.0455 37.3835C15.0341 37.3835 13.304 36.9574 11.8551 36.1051C10.4148 35.2443 9.30682 34.0511 8.53125 32.5256C7.7642 31 7.38068 29.2443 7.38068 27.2585C7.38068 25.2472 7.76847 23.483 8.54403 21.9659C9.32813 20.4403 10.4403 19.2514 11.8807 18.3991C13.321 17.5384 15.0341 17.108 17.0199 17.108C18.733 17.108 20.233 17.419 21.5199 18.0412C22.8068 18.6634 23.8253 19.5369 24.5753 20.6619C25.3253 21.7869 25.7386 23.108 25.8153 24.625H20.6761C20.5313 23.6449 20.1477 22.8565 19.5256 22.2599C18.9119 21.6548 18.1065 21.3523 17.1094 21.3523C16.2656 21.3523 15.5284 21.5824 14.8977 22.0426C14.2756 22.4943 13.7898 23.1548 13.4403 24.0241C13.0909 24.8935 12.9162 25.946 12.9162 27.1818C12.9162 28.4347 13.0866 29.5 13.4276 30.3778C13.777 31.2557 14.267 31.9247 14.8977 32.3849C15.5284 32.8452 16.2656 33.0753 17.1094 33.0753C17.7315 33.0753 18.2898 32.9474 18.7841 32.6918C19.2869 32.4361 19.7003 32.0653 20.0241 31.5795C20.3565 31.0852 20.5739 30.4929 20.6761 29.8026H25.8153C25.7301 31.3026 25.321 32.6236 24.5881 33.7656C23.8636 34.8991 22.8622 35.7855 21.5838 36.4247C20.3054 37.0639 18.7926 37.3835 17.0455 37.3835ZM34.9016 37.3707C33.6488 37.3707 32.5323 37.1534 31.5522 36.7188C30.5721 36.2756 29.7965 35.6236 29.2255 34.7628C28.663 33.8935 28.3817 32.8111 28.3817 31.5156C28.3817 30.4247 28.582 29.5085 28.9826 28.767C29.3832 28.0256 29.9286 27.429 30.619 26.9773C31.3093 26.5256 32.0934 26.1847 32.9712 25.9545C33.8576 25.7244 34.7866 25.5625 35.7582 25.4688C36.9002 25.3494 37.8207 25.2386 38.5195 25.1364C39.2184 25.0256 39.7255 24.8636 40.0408 24.6506C40.3562 24.4375 40.5139 24.1222 40.5139 23.7045V23.6278C40.5139 22.8182 40.2582 22.1918 39.7468 21.7486C39.244 21.3054 38.5281 21.0838 37.5991 21.0838C36.619 21.0838 35.8391 21.3011 35.2596 21.7358C34.68 22.1619 34.2965 22.6989 34.109 23.3466L29.0721 22.9375C29.3278 21.7443 29.8306 20.7131 30.5806 19.8438C31.3306 18.9659 32.2979 18.2926 33.4826 17.8239C34.6758 17.3466 36.0565 17.108 37.6246 17.108C38.7156 17.108 39.7596 17.2358 40.7567 17.4915C41.7624 17.7472 42.6531 18.1435 43.4286 18.6804C44.2127 19.2173 44.8306 19.9077 45.2823 20.7514C45.734 21.5866 45.9599 22.5881 45.9599 23.7557V37H40.7951V34.277H40.6417C40.3263 34.8906 39.9045 35.4318 39.3761 35.9006C38.8477 36.3608 38.2127 36.723 37.4712 36.9872C36.7298 37.2429 35.8732 37.3707 34.9016 37.3707ZM36.4613 33.6122C37.2624 33.6122 37.9698 33.4545 38.5835 33.1392C39.1971 32.8153 39.6786 32.3807 40.0281 31.8352C40.3775 31.2898 40.5522 30.6719 40.5522 29.9815V27.8977C40.3817 28.0085 40.1474 28.1108 39.8491 28.2045C39.5593 28.2898 39.2312 28.3707 38.8647 28.4474C38.4982 28.5156 38.1317 28.5795 37.7653 28.6392C37.3988 28.6903 37.0664 28.7372 36.7681 28.7798C36.1289 28.8736 35.5707 29.0227 35.0934 29.2273C34.6161 29.4318 34.2454 29.7088 33.9812 30.0582C33.717 30.3991 33.5849 30.8253 33.5849 31.3366C33.5849 32.0781 33.8533 32.6449 34.3903 33.0369C34.9357 33.4205 35.6261 33.6122 36.4613 33.6122ZM50.185 44.3636V17.3636H55.5543V20.6619H55.7972C56.0359 20.1335 56.381 19.5966 56.8327 19.0511C57.293 18.4972 57.8896 18.0369 58.6225 17.6705C59.364 17.2955 60.2844 17.108 61.3839 17.108C62.8157 17.108 64.1367 17.483 65.3469 18.233C66.5572 18.9744 67.5245 20.0952 68.2489 21.5952C68.9734 23.0866 69.3356 24.9574 69.3356 27.2074C69.3356 29.3977 68.9819 31.2472 68.2745 32.7557C67.5756 34.2557 66.6211 35.3935 65.4109 36.169C64.2092 36.9361 62.8626 37.3196 61.3711 37.3196C60.3143 37.3196 59.4151 37.1449 58.6737 36.7955C57.9407 36.446 57.3398 36.0071 56.8711 35.4787C56.4023 34.9418 56.0444 34.4006 55.7972 33.8551H55.631V44.3636H50.185ZM55.516 27.1818C55.516 28.3494 55.6779 29.3679 56.0018 30.2372C56.3256 31.1065 56.7944 31.7841 57.408 32.2699C58.0217 32.7472 58.7674 32.9858 59.6452 32.9858C60.5316 32.9858 61.2816 32.7429 61.8952 32.2571C62.5089 31.7628 62.9734 31.081 63.2887 30.2116C63.6126 29.3338 63.7745 28.3239 63.7745 27.1818C63.7745 26.0483 63.6168 25.0511 63.3015 24.1903C62.9862 23.3295 62.5217 22.6562 61.908 22.1705C61.2944 21.6847 60.5401 21.4418 59.6452 21.4418C58.7589 21.4418 58.0089 21.6761 57.3952 22.1449C56.7901 22.6136 56.3256 23.2784 56.0018 24.1392C55.6779 25 55.516 26.0142 55.516 27.1818ZM81.9151 37.3835C79.8952 37.3835 78.1566 36.9744 76.6992 36.1562C75.2504 35.3295 74.1339 34.1619 73.3498 32.6534C72.5657 31.1364 72.1737 29.3423 72.1737 27.2713C72.1737 25.2514 72.5657 23.4787 73.3498 21.9531C74.1339 20.4276 75.2376 19.2386 76.6609 18.3864C78.0927 17.5341 79.7717 17.108 81.6978 17.108C82.9933 17.108 84.1992 17.3168 85.3157 17.7344C86.4407 18.1435 87.4208 18.7614 88.256 19.5881C89.0998 20.4148 89.756 21.4545 90.2248 22.7074C90.6935 23.9517 90.9279 25.4091 90.9279 27.0795V28.5753H74.3469V25.2003H85.8015C85.8015 24.4162 85.631 23.7216 85.2901 23.1165C84.9492 22.5114 84.4762 22.0384 83.8711 21.6974C83.2745 21.348 82.5799 21.1733 81.7873 21.1733C80.9606 21.1733 80.2276 21.3651 79.5884 21.7486C78.9577 22.1236 78.4634 22.6307 78.1055 23.2699C77.7475 23.9006 77.5643 24.6037 77.5558 25.3793V28.5881C77.5558 29.5597 77.7347 30.3991 78.0927 31.1065C78.4592 31.8139 78.9748 32.3594 79.6396 32.7429C80.3043 33.1264 81.0927 33.3182 82.0046 33.3182C82.6097 33.3182 83.1637 33.233 83.6665 33.0625C84.1694 32.892 84.5998 32.6364 84.9577 32.2955C85.3157 31.9545 85.5884 31.5369 85.7759 31.0426L90.8129 31.375C90.5572 32.5852 90.033 33.642 89.2404 34.5455C88.4563 35.4403 87.4421 36.1392 86.1978 36.642C84.962 37.1364 83.5344 37.3835 81.9151 37.3835Z" fill="black"/>
<path d="M116 10H92V43H116V10Z" fill="url(#paint0_linear_269_2)"/>
<path d="M108.815 9.17481L102.562 6.62387L87.9801 42.3657L94.2327 44.9167L108.815 9.17481Z" fill="white"/>
<path d="M91.3726 25L98.3612 25.3399L97.9886 33L91 32.66L91.3726 25Z" fill="white"/>
<path d="M99.3724 6L106.361 6.33994L105.988 14L98.9998 13.6601L99.3724 6Z" fill="white"/>
<path d="M128.299 14.1881L115.582 9L101 44.7419L113.717 49.93L128.299 14.1881Z" fill="white"/>
<path d="M101 6H92V27H101V6Z" fill="white"/>
</g>
<defs>
<linearGradient id="paint0_linear_269_2" x1="104" y1="10" x2="104" y2="43" gradientUnits="userSpaceOnUse">
<stop stop-color="#E64963"/>
<stop offset="1" stop-color="#EC3CBD"/>
</linearGradient>
<clipPath id="clip0_269_2">
<rect width="133" height="53" fill="white"/>
</clipPath>
</defs>
</svg>
